<?xml version="1.0" encoding="UTF-8"?>
<svg version="1.1" xmlns="http://www.w3.org/2000/svg" width="500" height="500">
<path d="M0 0 C165 0 330 0 500 0 C500 165 500 330 500 500 C335 500 170 500 0 500 C0 335 0 170 0 0 Z " fill="#FCFCFC" transform="translate(0,0)"/>
<path d="M0 0 C1.40765625 0.00580078 1.40765625 0.00580078 2.84375 0.01171875 C5.52087334 0.3148636 7.19965635 0.95073996 9.5 2.3125 C10.16 1.6525 10.82 0.9925 11.5 0.3125 C11.52505615 1.45315918 11.5501123 2.59381836 11.57592773 3.76904297 C11.66994293 7.99214341 11.77017787 12.21507709 11.87231445 16.43798828 C11.91568565 18.26737575 11.95735911 20.09680427 11.99731445 21.92626953 C12.05496418 24.55253486 12.11867365 27.1785931 12.18359375 29.8046875 C12.20030624 30.62556854 12.21701874 31.44644958 12.23423767 32.29220581 C12.2431387 36.4358696 12.2431387 36.4358696 13.5 40.3125 C10.86 40.3125 8.22 40.3125 5.5 40.3125 C5.83 39.6525 6.16 38.9925 6.5 38.3125 C6.5716735 35.76092345 6.59308442 33.23777029 6.5625 30.6875 C6.55798828 29.98109375 6.55347656 29.2746875 6.54882812 28.546875 C6.53703875 26.80204725 6.51910324 25.057263 6.5 23.3125 C5.93152344 23.79847656 5.36304688 24.28445312 4.77734375 24.78515625 C1.1529698 27.21591134 -2.28152746 26.9904688 -6.5 26.3125 C-9.59098636 24.53682699 -11.02950156 23.11906876 -12.8125 20.0625 C-14.1685042 14.63848319 -14.34039591 10.90324941 -11.75 6 C-8.07714531 1.61297912 -5.82131187 -0.103952 0 0 Z " fill="#F9F9F9" transform="translate(259.5,211.6875)"/>
<path d="M0 0 C0.75925781 -0.03996094 1.51851563 -0.07992187 2.30078125 -0.12109375 C6.07075306 0.76124008 7.41414958 2.33282039 9.6875 5.4375 C10.39353267 8.66888699 10.43252795 11.8260432 10.4375 15.125 C10.47060037 16.83730779 10.50690237 18.5495576 10.546875 20.26171875 C10.55170898 21.01541748 10.55654297 21.76911621 10.56152344 22.5456543 C10.57093937 24.52671021 10.57093937 24.52671021 11.6875 26.4375 C9.7075 26.4375 7.7275 26.4375 5.6875 26.4375 C5.3575 24.1275 5.0275 21.8175 4.6875 19.4375 C3.90375 20.406875 3.12 21.37625 2.3125 22.375 C0.77461295 24.27712346 -0.10509913 25.33379957 -2.3125 26.4375 C-8.48672868 27.00918784 -8.48672868 27.00918784 -11.75 24.75 C-13.3125 22.4375 -13.3125 22.4375 -13.9375 20 C-13.17683193 16.88126089 -11.77066645 15.48851491 -9.234375 13.57421875 C-4.9526925 11.0417602 -0.29003116 9.4375 4.6875 9.4375 C4.0275 7.4575 3.3675 5.4775 2.6875 3.4375 C-0.2825 3.1075 -3.2525 2.7775 -6.3125 2.4375 C-3.94209692 0.06709692 -3.24947247 0.09284207 0 0 Z " fill="#1B1B1B" transform="translate(319.3125,211.5625)"/>
<path d="M0 0 C1.40765625 0.00580078 1.40765625 0.00580078 2.84375 0.01171875 C5.52087334 0.3148636 7.19965635 0.95073996 9.5 2.3125 C10.16 1.6525 10.82 0.9925 11.5 0.3125 C11.52505615 1.45315918 11.5501123 2.59381836 11.57592773 3.76904297 C11.66994293 7.99214341 11.77017787 12.21507709 11.87231445 16.43798828 C11.91568565 18.26737575 11.95735911 20.09680427 11.99731445 21.92626953 C12.05496418 24.55253486 12.11867365 27.1785931 12.18359375 29.8046875 C12.20030624 30.62556854 12.21701874 31.44644958 12.23423767 32.29220581 C12.2431387 36.4358696 12.2431387 36.4358696 13.5 40.3125 C10.86 40.3125 8.22 40.3125 5.5 40.3125 C5.83 39.6525 6.16 38.9925 6.5 38.3125 C6.5716735 35.76092345 6.59308442 33.23777029 6.5625 30.6875 C6.55798828 29.98109375 6.55347656 29.2746875 6.54882812 28.546875 C6.53703875 26.80204725 6.51910324 25.057263 6.5 23.3125 C5.93152344 23.79847656 5.36304688 24.28445312 4.77734375 24.78515625 C1.1529698 27.21591134 -2.28152746 26.9904688 -6.5 26.3125 C-9.59098636 24.53682699 -11.02950156 23.11906876 -12.8125 20.0625 C-14.1685042 14.63848319 -14.34039591 10.90324941 -11.75 6 C-8.07714531 1.61297912 -5.82131187 -0.103952 0 0 Z M-7.4375 3.1875 C-10.33371205 7.57570007 -10.40093931 11.19352665 -9.5 16.3125 C-7.50342873 20.16794798 -6.10292362 21.91055092 -2.5 24.3125 C1.65869464 24.01545038 4.00407222 23.64311852 7.5 21.3125 C7.86157951 18.76637764 8.00971137 16.54680552 8 14 C8.0309375 12.68386719 8.061875 11.36773437 8.09375 10.01171875 C7.3684992 5.49321543 6.08981001 4.06225272 2.5 1.3125 C-1.84189423 0.53716175 -3.71389337 0.81072981 -7.4375 3.1875 Z " fill="#040404" transform="translate(259.5,211.6875)"/>
<path d="M0 0 C4.29 0 8.58 0 13 0 C13 18.48 13 36.96 13 56 C8.71 56 4.42 56 0 56 C0 55.67 0 55.34 0 55 C2.97 55 5.94 55 9 55 C9 37.18 9 19.36 9 1 C6.03 1 3.06 1 0 1 C0 0.67 0 0.34 0 0 Z " fill="#4D4D4D" transform="translate(396,196)"/>
<path d="M0 0 C6.45152159 0.48690729 6.45152159 0.48690729 8.9375 2.8125 C10 5 10 5 10 9 C3.4 9 -3.2 9 -10 9 C-8.93314074 17.60373476 -8.93314074 17.60373476 -5 21 C-1.43528609 22.18823797 1.2558336 22.26274852 5 22 C7.40083438 20.64114884 7.40083438 20.64114884 9 19 C9.66 19.33 10.32 19.66 11 20 C5.51675071 24.64884179 2.82032668 26.41511105 -4.51953125 26.3515625 C-7 26 -7 26 -10 23.75 C-13.51941796 18.9108003 -14.62591418 16.15482281 -14 10 C-12.86606731 7.46590696 -11.52684205 5.33797689 -10 3 C-9.01 3 -8.02 3 -7 3 C-7.66 4.65 -8.32 6.3 -9 8 C-4.05 8 0.9 8 6 8 C3.35766787 3.53051762 3.35766787 3.53051762 0 0 Z " fill="#232323" transform="translate(177,212)"/>
<path d="M0 0 C3.89759919 0.2657454 5.56306771 0.56306771 8.375 3.375 C10 6 10 6 10 9 C3.4 9 -3.2 9 -10 9 C-9.62875 11.3821875 -9.62875 11.3821875 -9.25 13.8125 C-9.11078125 14.70582031 -8.9715625 15.59914062 -8.828125 16.51953125 C-7.80803804 19.57498041 -6.79181046 20.4529137 -4 22 C1.70722989 22.55231257 4.98138186 22.01117088 10 19 C9.03441599 21.54563057 8.06131195 22.94635204 6 24.75 C1.62940298 26.57108209 -2.33713158 26.8119052 -7 26 C-10.61884168 24.10337815 -12.68786858 21.93639425 -14 18 C-14.60184661 13.64232581 -15.00073892 9.6513651 -12.66015625 5.7890625 C-11.18062358 4.08324837 -9.67861101 2.50875156 -8 1 C-7.34 1.33 -6.68 1.66 -6 2 C-6.7115625 2.6496875 -6.7115625 2.6496875 -7.4375 3.3125 C-9.23686957 5.02309613 -9.23686957 5.02309613 -10 8 C-5.05 8 -0.1 8 5 8 C3.18664073 3.25821624 3.18664073 3.25821624 0 0 Z " fill="#0A0A0A" transform="translate(371,212)"/>
<path d="M0 0 C4.29 0 8.58 0 13 0 C13 0.33 13 0.66 13 1 C9.7 1 6.4 1 3 1 C3 18.82 3 36.64 3 55 C6.3 55 9.6 55 13 55 C13 55.33 13 55.66 13 56 C8.71 56 4.42 56 0 56 C0 37.52 0 19.04 0 0 Z " fill="#1F1F1F" transform="translate(195,196)"/>
<path d="M0 0 C0.02505615 0.80743652 0.0501123 1.61487305 0.07592773 2.44677734 C0.19165487 6.08968917 0.31448635 9.73232726 0.4375 13.375 C0.47681641 14.64601562 0.51613281 15.91703125 0.55664062 17.2265625 C0.61948242 19.04414063 0.61948242 19.04414063 0.68359375 20.8984375 C0.72025146 22.01911621 0.75690918 23.13979492 0.79467773 24.29443359 C0.82596013 26.96712771 0.82596013 26.96712771 2 29 C3.98 29 5.96 29 8 29 C6.10442866 31.52742845 5.19410622 31.97169284 2 32.4375 C-1 32 -1 32 -2.66918945 30.28417969 C-4.22891249 27.60709865 -4.34924302 26.09195171 -4.29296875 23.015625 C-4.28330078 22.08105469 -4.27363281 21.14648438 -4.26367188 20.18359375 C-4.23853516 19.21550781 -4.21339844 18.24742187 -4.1875 17.25 C-4.17396484 16.26644531 -4.16042969 15.28289062 -4.14648438 14.26953125 C-4.11118726 11.84579585 -4.06188054 9.42317855 -4 7 C-4.99 7 -5.98 7 -7 7 C-5.80061288 4.10148113 -3.63852862 0 0 0 Z " fill="#151515" transform="translate(151,206)"/>
<path d="M0 0 C0.99 0 1.98 0 3 0 C4.98 5.94 6.96 11.88 9 18 C9.66 17.01 10.32 16.02 11 15 C11.66 14.01 12.32 13.02 13 12 C12.46148032 17.27749285 11.22656164 21.25645564 9 26 C8.34 26 7.68 26 7 26 C6.2066145 23.95900065 5.4153697 21.9171691 4.625 19.875 C4.18414062 18.73804688 3.74328125 17.60109375 3.2890625 16.4296875 C2.11785816 13.31357414 1.05270518 10.15811555 0 7 C-1.65 10.96 -3.3 14.92 -5 19 C-6.35069977 14.94790069 -4.98839952 12.23313056 -3.625 8.375 C-3.39039062 7.68148437 -3.15578125 6.98796875 -2.9140625 6.2734375 C-1.15438988 1.15438988 -1.15438988 1.15438988 0 0 Z " fill="#292929" transform="translate(90,212)"/>
<path d="M0 0 C0.02505615 0.71655762 0.0501123 1.43311523 0.07592773 2.17138672 C0.19169751 5.40611514 0.31450969 8.64053841 0.4375 11.875 C0.47681641 13.00292969 0.51613281 14.13085938 0.55664062 15.29296875 C0.59853516 16.36933594 0.64042969 17.44570312 0.68359375 18.5546875 C0.72025146 19.54968262 0.75690918 20.54467773 0.79467773 21.56982422 C0.84959532 24.00779501 0.84959532 24.00779501 2 26 C-0.64 26 -3.28 26 -6 26 C-6 17.75 -6 9.5 -6 1 C-3 0 -3 0 0 0 Z " fill="#272727" transform="translate(139,212)"/>
<path d="M0 0 C-0.50109739 5.26152256 -2.20964173 9.20964173 -6 13 C-9.4375 13.25 -9.4375 13.25 -13 13 C-15 10 -15 10 -14.875 7.5 C-13.78619152 4.38911864 -12.84828399 3.61659362 -10 2 C-6.3359342 0.54964062 -3.98443191 0 0 0 Z " fill="#F5F5F5" transform="translate(325,222)"/>
<path d="M0 0 C0 0.33 0 0.66 0 1 C-1.670625 1.4021875 -1.670625 1.4021875 -3.375 1.8125 C-7.21840951 2.65809019 -7.21840951 2.65809019 -9 6 C-9.73064819 10.93612323 -9.44426708 14.98707106 -7.4375 19.5625 C-4.30224954 22.69775046 -2.37686429 22.92184171 2 23 C4.32158065 22.65340705 4.32158065 22.65340705 6 22 C4.257411 24.42447165 2.89200592 25.82692422 -0.09375 26.40625 C-4.07832101 26.56563284 -6.43191772 26.32634514 -9.9375 24.3125 C-13.6107993 20.1939523 -14.46688762 16.5411029 -14.3203125 10.9921875 C-13.64414439 6.78675169 -11.03997858 4.03997858 -8.125 1.125 C-5.32128484 -0.35931979 -3.12299996 -0.21293182 0 0 Z " fill="#1A1A1A" transform="translate(260,212)"/>
<path d="M0 0 C0.02505615 0.62567871 0.0501123 1.25135742 0.07592773 1.89599609 C0.19175273 4.72254619 0.31453985 7.54875169 0.4375 10.375 C0.47681641 11.35984375 0.51613281 12.3446875 0.55664062 13.359375 C0.59853516 14.30039063 0.64042969 15.24140625 0.68359375 16.2109375 C0.72025146 17.08024902 0.75690918 17.94956055 0.79467773 18.84521484 C0.87401544 21.0483262 0.87401544 21.0483262 2 23 C3.89533342 23.46523063 3.89533342 23.46523063 6.0625 23.625 C7.361875 23.74875 8.66125 23.8725 10 24 C7.43922235 26.56077765 5.57117397 26.31451364 2.0703125 26.4609375 C-1.10884095 25.75312598 -2.12415929 24.66631507 -4 22 C-4.62475234 18.98472825 -4.69631209 16.00991295 -4.75 12.9375 C-4.79447266 11.71450195 -4.79447266 11.71450195 -4.83984375 10.46679688 C-4.94880965 7.30938026 -5 4.15934799 -5 1 C-3 0 -3 0 0 0 Z " fill="#0E0E0E" transform="translate(282,212)"/>
<path d="M0 0 C1 2 1 2 1.19140625 4.4609375 C1.7654858 7.26606346 1.7654858 7.26606346 4.65234375 8.4765625 C5.73644531 8.85554687 6.82054687 9.23453125 7.9375 9.625 C13.80635086 11.70952629 13.80635086 11.70952629 16 15 C15.875 18.5625 15.875 18.5625 15 22 C12.9375 23.4375 12.9375 23.4375 11 24 C11.33 21.69 11.66 19.38 12 17 C11.16855469 16.67386719 10.33710938 16.34773438 9.48046875 16.01171875 C8.39378906 15.57472656 7.30710938 15.13773438 6.1875 14.6875 C5.10855469 14.25824219 4.02960938 13.82898438 2.91796875 13.38671875 C0.28488314 12.13538623 -1.27240137 11.30940161 -3 9 C-3.375 6 -3.375 6 -3 3 C-1.5 1.125 -1.5 1.125 0 0 Z " fill="#161616" transform="translate(226,213)"/>
<path d="M0 0 C0.86305729 5.15137322 1.09730178 10.03462472 1 15.25 C0.85795967 20.69671085 0.85795967 20.69671085 2 26 C-0.64 26 -3.28 26 -6 26 C-5.67 25.34 -5.34 24.68 -5 24 C-4.91627853 22.51371893 -4.89269964 21.02376221 -4.90234375 19.53515625 C-4.90556641 18.65279297 -4.90878906 17.77042969 -4.91210938 16.86132812 C-4.92048828 15.93771484 -4.92886719 15.01410156 -4.9375 14.0625 C-4.94201172 13.14275391 -4.94652344 12.22300781 -4.95117188 11.27539062 C-4.95990384 9.56517255 -4.97068358 7.85496289 -4.98413086 6.14477539 C-4.99681926 4.42988904 -5 2.71493329 -5 1 C-3 0 -3 0 0 0 Z " fill="#101010" transform="translate(340,212)"/>
<path d="M0 0 C0.86305729 5.15137322 1.09730178 10.03462472 1 15.25 C0.85795967 20.69671085 0.85795967 20.69671085 2 26 C-0.64 26 -3.28 26 -6 26 C-5.67 25.34 -5.34 24.68 -5 24 C-4.91627853 22.51371893 -4.89269964 21.02376221 -4.90234375 19.53515625 C-4.90556641 18.65279297 -4.90878906 17.77042969 -4.91210938 16.86132812 C-4.92048828 15.93771484 -4.92886719 15.01410156 -4.9375 14.0625 C-4.94201172 13.14275391 -4.94652344 12.22300781 -4.95117188 11.27539062 C-4.95990384 9.56517255 -4.97068358 7.85496289 -4.98413086 6.14477539 C-4.99681926 4.42988904 -5 2.71493329 -5 1 C-3 0 -3 0 0 0 Z " fill="#101010" transform="translate(116,212)"/>
<path d="M0 0 C2.31 0 4.62 0 7 0 C7.0825 1.093125 7.165 2.18625 7.25 3.3125 C7.92251656 8.85087171 9.99529083 13.82952094 12 19 C13 22 13 22 12.0625 24.1875 C11.711875 24.785625 11.36125 25.38375 11 26 C10.01 25.67 9.02 25.34 8 25 C7.03271484 22.80688477 7.03271484 22.80688477 6.2109375 19.94140625 C5.90929687 18.91595703 5.60765625 17.89050781 5.296875 16.83398438 C4.99265625 15.75439453 4.6884375 14.67480469 4.375 13.5625 C3.75903722 11.43844654 3.14190749 9.31473103 2.5234375 7.19140625 C2.25450684 6.24467041 1.98557617 5.29793457 1.70849609 4.32250977 C1.07224462 2.00550959 1.07224462 2.00550959 0 0 Z " fill="#101010" transform="translate(71,212)"/>
<path d="M0 0 C0.02505615 0.71655762 0.0501123 1.43311523 0.07592773 2.17138672 C0.19169751 5.40611514 0.31450969 8.64053841 0.4375 11.875 C0.47681641 13.00292969 0.51613281 14.13085938 0.55664062 15.29296875 C0.59853516 16.36933594 0.64042969 17.44570312 0.68359375 18.5546875 C0.72025146 19.54968262 0.75690918 20.54467773 0.79467773 21.56982422 C0.84959532 24.00779501 0.84959532 24.00779501 2 26 C0.35 26 -1.3 26 -3 26 C-5.32091353 21.41299766 -5.23608186 17.38222833 -5.125 12.375 C-5.11597656 11.611875 -5.10695313 10.84875 -5.09765625 10.0625 C-5.07283765 8.04155689 -5.03704033 6.02075605 -5 4 C-5 3.01 -5 2.02 -5 1 C-3 0 -3 0 0 0 Z " fill="#080808" transform="translate(300,212)"/>
<path d="M0 0 C0 0.99 0 1.98 0 3 C0.495 3.495 0.99 3.99 1.5 4.5 C1.995 4.995 2.49 5.49 3 6 C3 6.99 3 7.98 3 9 C-1.95 9 -6.9 9 -12 9 C-11 4 -11 4 -9 1 C-5.8035914 -0.06546953 -3.34252724 -0.07427838 0 0 Z " fill="#E8E8E8" transform="translate(180,211)"/>
<path d="M0 0 C0.886875 0.103125 1.77375 0.20625 2.6875 0.3125 C2.3575 0.9725 2.0275 1.6325 1.6875 2.3125 C2.3475 2.910625 3.0075 3.50875 3.6875 4.125 C5.6875 6.3125 5.6875 6.3125 5.6875 9.3125 C0.7375 9.3125 -4.2125 9.3125 -9.3125 9.3125 C-7.96136143 3.90794573 -5.81267749 0.5483658 0 0 Z " fill="#EAEAEA" transform="translate(370.3125,210.6875)"/>
<path d="M0 0 C3.89759919 0.2657454 5.56306771 0.56306771 8.375 3.375 C10 6 10 6 10 9 C3.4 9 -3.2 9 -10 9 C-10 10.65 -10 12.3 -10 14 C-10.33 14 -10.66 14 -11 14 C-11.54372951 10.94152152 -12 8.11227195 -12 5 C-10 2.8125 -10 2.8125 -8 1 C-7.34 1.33 -6.68 1.66 -6 2 C-6.7115625 2.6496875 -6.7115625 2.6496875 -7.4375 3.3125 C-9.23686957 5.02309613 -9.23686957 5.02309613 -10 8 C-5.05 8 -0.1 8 5 8 C3.18664073 3.25821624 3.18664073 3.25821624 0 0 Z " fill="#4F4F4F" transform="translate(371,212)"/>
<path d="M0 0 C6.47135061 0.48840382 6.47135061 0.48840382 8.9375 2.875 C10 5 10 5 10 8 C8.68 8 7.36 8 6 8 C4.4375 5.6875 4.4375 5.6875 3 3 C1.41754725 1.24850835 1.41754725 1.24850835 0 0 Z " fill="#131313" transform="translate(177,212)"/>
<path d="M0 0 C5.43396226 0.60377358 5.43396226 0.60377358 7.875 2.3125 C9 4 9 4 9 8 C7.125 7.75 7.125 7.75 5 7 C3.9375 5.125 3.9375 5.125 3 3 C1.4587688 1.29078411 1.4587688 1.29078411 0 0 Z " fill="#0E0E0E" transform="translate(371,212)"/>
<path d="M0 0 C1.17755859 0.14888672 1.17755859 0.14888672 2.37890625 0.30078125 C4.4375 0.6875 4.4375 0.6875 6.4375 1.6875 C6.4375 3.3375 6.4375 4.9875 6.4375 6.6875 C5.798125 6.048125 5.15875 5.40875 4.5 4.75 C0.51819118 2.06837365 -2.857292 1.89251996 -7.5625 1.6875 C-4.24985796 -0.52092803 -3.72798604 -0.50975756 0 0 Z " fill="#525252" transform="translate(234.5625,211.3125)"/>
<path d="M0 0 C1.6396875 0.0928125 1.6396875 0.0928125 3.3125 0.1875 C2.9825 1.5075 2.6525 2.8275 2.3125 4.1875 C-0.6575 3.8575 -3.6275 3.5275 -6.6875 3.1875 C-3.6875 0.1875 -3.6875 0.1875 0 0 Z " fill="#1B1B1B" transform="translate(349.6875,211.8125)"/>
<path d="M0 0 C1.6396875 0.0928125 1.6396875 0.0928125 3.3125 0.1875 C2.9825 1.5075 2.6525 2.8275 2.3125 4.1875 C-0.6575 3.8575 -3.6275 3.5275 -6.6875 3.1875 C-3.6875 0.1875 -3.6875 0.1875 0 0 Z " fill="#1B1B1B" transform="translate(125.6875,211.8125)"/>
<path d="M0 0 C-0.60328125 0.25394531 -1.2065625 0.50789062 -1.828125 0.76953125 C-10.02442398 4.0768314 -10.02442398 4.0768314 -15 11 C-15.375 8.8125 -15.375 8.8125 -15 6 C-10.56895141 1.56895141 -6.41882426 -1.86877162 0 0 Z " fill="#4F4F4F" transform="translate(321,223)"/>
<path d="M0 0 C1.65 0 3.3 0 5 0 C3.68 3.96 2.36 7.92 1 12 C-0.07396066 7.70415737 -0.07329796 4.39787789 0 0 Z " fill="#545454" transform="translate(103,212)"/>
<path d="M0 0 C2.475 0.495 2.475 0.495 5 1 C4.67 2.32 4.34 3.64 4 5 C2.68 5 1.36 5 0 5 C0 3.35 0 1.7 0 0 Z " fill="#0B0B0B" transform="translate(134,203)"/>
<path d="M0 0 C5.75 4.75 5.75 4.75 8 7 C1.125 6.125 1.125 6.125 0 5 C-0.04063832 3.33382885 -0.042721 1.66611905 0 0 Z " fill="#101010" transform="translate(223,231)"/>
<path d="M0 0 C0 3 0 3 -1.625 4.75 C-4.77514641 6.40797179 -6.62025695 5.84493576 -10 5 C-10 4.67 -10 4.34 -10 4 C-9.36191406 3.79503906 -8.72382813 3.59007812 -8.06640625 3.37890625 C-7.24011719 3.10949219 -6.41382813 2.84007812 -5.5625 2.5625 C-4.73878906 2.29566406 -3.91507812 2.02882812 -3.06640625 1.75390625 C-1.03780412 1.17844506 -1.03780412 1.17844506 0 0 Z " fill="#3D3D3D" transform="translate(380,231)"/>
</svg>
